# xmcd
#
# Track frame offsets:
#	150
#	15197
#	29910
#	45672
#	59575
#	73150
#	91575
#	108035
#	123157
#	140350
#
# Disc length: 2146 seconds
#
# Revision: 0
# Processed by: cddbd v1.4PL0 Copyright (c) Steve Scherf et al.
# Submitted via: MusicManager 7.0.3.0 
#
DISCID=7e08600a
DTITLE=Catfish Hodge - Down the road
DYEAR=1990
DGENRE=blues
TTITLE0=Down the road
TTITLE1=Slip my gator
TTITLE2=Shake a tail feather
TTITLE3=Pain and paradise
TTITLE4=Pump it up
TTITLE5=Ain't got it no more
TTITLE6=Holiday
TTITLE7=Drowning in the sea of love
TTITLE8=Stay all night
TTITLE9=High roller
EXTD=
EXTT0=
EXTT1=
EXTT2=
EXTT3=
EXTT4=
EXTT5=
EXTT6=
EXTT7=
EXTT8=
EXTT9=
PLAYORDER=
